<svg version="1.1" xmlns="http://www.w3.org/2000/svg" xmlns:xlink="http://www.w3.org/1999/xlink">
	<symbol id="social-dribbble" xmlns="http://www.w3.org/2000/svg" viewBox="0 0 32 32"><path fill-rule="evenodd" clip-rule="evenodd" d="M16 32C7.2 32 0 24.8 0 16S7.2 0 16 0s16 7.2 16 16-7.2 16-16 16zm13.5-13.8c-.5-.2-4.2-1.3-8.5-.6 1.8 4.9 2.5 8.9 2.7 9.7 3-2 5.2-5.3 5.8-9.1zm-8.2 10.4c-.2-1.2-1-5.4-2.9-10.4h-.1c-7.7 2.7-10.5 8-10.7 8.5 2.3 1.8 5.2 2.9 8.4 2.9 1.9.1 3.7-.3 5.3-1zM5.8 25.2c.3-.5 4.1-6.7 11.1-9 .2-.1.4-.1.5-.2-.3-.8-.7-1.6-1.1-2.3-6.8 2-13.4 2-14 1.9v.4c0 3.5 1.4 6.7 3.5 9.2zm-3.2-12c.6 0 6.2 0 12.6-1.7-2.3-4-4.7-7.4-5.1-7.9C6.4 5.5 3.5 9 2.6 13.2zM12.8 2.7c.4.5 2.9 3.9 5.1 8 4.9-1.8 6.9-4.6 7.2-4.9-2.4-2.1-5.6-3.4-9.1-3.4-1.1 0-2.2.1-3.2.3zm13.8 4.7c-.3.4-2.6 3.3-7.6 5.4.3.7.6 1.3.9 2 .1.2.2.5.3.7 4.5-.6 9.1.3 9.5.4-.1-3.2-1.2-6.2-3.1-8.5z"/></symbol>

	<symbol id="social-facebook" xmlns="http://www.w3.org/2000/svg" viewBox="0 0 32 32"><path d="M30.7 0H1.3C.6 0 0 .6 0 1.3v29.3c0 .8.6 1.4 1.3 1.4H17V20h-4v-5h4v-4c0-4.1 2.6-6.2 6.3-6.2 1.8 0 3.3.2 3.7.2v4.3h-2.6c-2 0-2.5 1-2.5 2.4V15h5l-1 5h-4l.1 12h8.6c.7 0 1.3-.6 1.3-1.3V1.3C32 .6 31.4 0 30.7 0z"/></symbol>

	<symbol id="social-github" xmlns="http://www.w3.org/2000/svg" viewBox="0 0 32 32"><path fill-rule="evenodd" clip-rule="evenodd" d="M16 .4C7.2.4 0 7.6 0 16.4c0 7.1 4.6 13.1 10.9 15.2.8.1 1.1-.3 1.1-.8v-2.7c-4.5 1-5.4-2.1-5.4-2.1-.7-1.8-1.8-2.3-1.8-2.3-1.5-1 .1-1 .1-1 1.6.1 2.5 1.6 2.5 1.6 1.4 2.4 3.7 1.7 4.7 1.3.1-1 .6-1.7 1-2.1-3.6-.4-7.3-1.8-7.3-7.9 0-1.7.6-3.2 1.6-4.3-.2-.4-.7-2 .2-4.2 0 0 1.3-.4 4.4 1.6 1.3-.4 2.6-.5 4-.5s2.7.2 4 .5C23.1 6.6 24.4 7 24.4 7c.9 2.2.3 3.8.2 4.2 1 1.1 1.6 2.5 1.6 4.3 0 6.1-3.7 7.5-7.3 7.9.6.5 1.1 1.5 1.1 3v4.4c0 .4.3.9 1.1.8C27.4 29.5 32 23.5 32 16.4c0-8.8-7.2-16-16-16z"/></symbol>
	 
	<symbol id="social-instagram" xmlns="http://www.w3.org/2000/svg" viewBox="0 0 32 32"><path d="M28.2 0H3.8C1.7 0 0 1.7 0 3.8v24.4C0 30.3 1.7 32 3.8 32h24.4c2.1 0 3.8-1.7 3.8-3.8V3.8C32 1.7 30.3 0 28.2 0zM24 4h3c.6 0 1 .4 1 1v3c0 .6-.4 1-1 1h-3c-.6 0-1-.4-1-1V5c0-.6.4-1 1-1zm-8 5.9c3.4 0 6.2 2.7 6.2 6.1 0 3.4-2.8 6.1-6.2 6.1-3.4 0-6.2-2.7-6.2-6.1.1-3.4 2.8-6.1 6.2-6.1zM28 29H4c-.6 0-1-.4-1-1V13h4c-.5.8-.7 2.1-.7 3 0 5.4 4.4 9.7 9.7 9.7 5.4 0 9.7-4.4 9.7-9.7 0-.9-.1-2.3-.8-3h4v15c.1.6-.3 1-.9 1z"/></symbol>

	<symbol id="social-linkedin" xmlns="http://www.w3.org/2000/svg" viewBox="0 0 32 32"><path d="M30.7 0H1.3C.6 0 0 .6 0 1.3v29.3c0 .8.6 1.4 1.3 1.4h29.3c.7 0 1.3-.6 1.3-1.3V1.3C32 .6 31.4 0 30.7 0zM9.5 27.3H4.7V12h4.8v15.3zM7.1 9.9c-1.5 0-2.8-1.2-2.8-2.8 0-1.5 1.2-2.8 2.8-2.8 1.5 0 2.8 1.2 2.8 2.8 0 1.6-1.3 2.8-2.8 2.8zm20.2 17.4h-4.7v-7.4c0-1.8 0-4-2.5-4s-2.8 1.9-2.8 3.9v7.6h-4.7V12H17v2.1h.1c.6-1.2 2.2-2.5 4.5-2.5 4.8 0 5.7 3.2 5.7 7.3v8.4z"/></symbol>

	<symbol id="social-pinterest" xmlns="http://www.w3.org/2000/svg" viewBox="0 0 32 32"><path d="M16 0C7.2 0 0 7.2 0 16c0 6.8 4.2 12.6 10.2 14.9-.1-1.3-.3-3.2.1-4.6.3-1.2 1.9-8 1.9-8s-.5-1-.5-2.4c0-2.2 1.3-3.9 2.9-3.9 1.4 0 2 1 2 2.3 0 1.4-.9 3.4-1.3 5.3-.4 1.6.8 2.9 2.4 2.9 2.8 0 5-3 5-7.3 0-3.8-2.8-6.5-6.7-6.5-4.6 0-7.2 3.4-7.2 6.9 0 1.4.5 2.8 1.2 3.7.1.2.1.3.1.5-.1.5-.4 1.6-.4 1.8-.2.3-.4.4-.7.2-2-.9-3.2-3.9-3.2-6.2 0-5 3.7-9.7 10.6-9.7 5.6 0 9.9 4 9.9 9.2 0 5.5-3.5 10-8.3 10-1.6 0-3.1-.8-3.7-1.8 0 0-.8 3.1-1 3.8-.4 1.4-1.3 3.1-2 4.2 1.5.5 3.1.7 4.7.7 8.8 0 16-7.2 16-16S24.8 0 16 0z"/></symbol>

	<symbol id="social-producthunt" xmlns="http://www.w3.org/2000/svg" viewBox="0 0 32 32"><path d="M18.1 11.2h-4.5V16h4.5c1.3 0 2.4-1.1 2.4-2.4 0-1.3-1-2.4-2.4-2.4z"/><path fill="#444" d="M16 0C7.2 0 0 7.2 0 16s7.2 16 16 16 16-7.2 16-16S24.8 0 16 0zm2.1 19.2h-4.5V24h-3.2V8h7.7c3.1 0 5.6 2.5 5.6 5.6 0 3.1-2.5 5.6-5.6 5.6z"/></symbol>

	<symbol id="social-reddit" xmlns="http://www.w3.org/2000/svg" viewBox="0 0 32 32"><path d="M32 15.7c0-2.1-1.7-3.8-3.8-3.8-.9 0-1.8.3-2.4.9-2.3-1.5-5.3-2.4-8.5-2.5L19 5l4.5 1c.1 1.7 1.5 3 3.2 3 1.8 0 3.2-1.4 3.2-3.2 0-1.8-1.4-3.2-3.2-3.2-1.2 0-2.3.7-2.9 1.7L18.5 3c-.4-.1-.9.2-1 .6l-2.1 6.5c-3.4.1-6.7 1-9.2 2.5-.7-.5-1.5-.8-2.4-.8-2.1 0-3.8 1.7-3.8 3.8 0 1.3.7 2.5 1.7 3.2 0 .3-.1.6-.1.9 0 2.7 1.5 5.1 4.3 6.9 2.7 1.8 6.2 2.7 10 2.7s7.3-1 10-2.7c2.8-1.8 4.3-4.3 4.3-6.9 0-.3 0-.6-.1-.8 1.2-.6 1.9-1.8 1.9-3.2zM26.7 4.3c.8 0 1.5.7 1.5 1.5s-.7 1.5-1.5 1.5-1.5-.7-1.5-1.5.7-1.5 1.5-1.5zM9.1 18.1c0-1.2 1-2.2 2.2-2.2 1.2 0 2.2 1 2.2 2.2s-1 2.2-2.2 2.2c-1.2 0-2.2-1-2.2-2.2zm12.2 6.4c-1.1 1.1-2.8 1.7-5.3 1.7-2.4 0-4.1-.5-5.3-1.7-.3-.3-.3-.9 0-1.2.3-.3.9-.3 1.2 0 .8.8 2.1 1.1 4 1.1s3.2-.4 4-1.1c.3-.3.9-.3 1.2 0 .5.3.5.8.2 1.2zm-.5-4.2c-1.2 0-2.2-1-2.2-2.2s1-2.2 2.2-2.2c1.2 0 2.2 1 2.2 2.2s-1 2.2-2.2 2.2z"/></symbol>

	<symbol id="social-rss" xmlns="http://www.w3.org/2000/svg" viewBox="0 0 32 32"><circle cx="5.3" cy="25.3" r="4"/><path fill="#444" d="M29.3 29.3H24C24 16.8 13.8 6.7 1.3 6.7V1.3c15.5 0 28 12.6 28 28z"/><path fill="#444" d="M20 29.3h-5.3C14.7 22 8.7 16 1.3 16v-5.3C11.6 10.7 20 19 20 29.3z"/></symbol>

	<symbol id="social-twitter" xmlns="http://www.w3.org/2000/svg" viewBox="0 0 32 32"><path d="M32 6.1c-1.2.5-2.4.9-3.8 1 1.4-.8 2.4-2.1 2.9-3.6-1.3.8-2.7 1.3-4.2 1.6C25.7 3.8 24 3 22.2 3c-3.6 0-6.6 2.9-6.6 6.6 0 .5.1 1 .2 1.5-5.5-.3-10.3-2.9-13.6-6.9-.6 1-.9 2.1-.9 3.3 0 2.3 1.2 4.3 2.9 5.5-1.1 0-2.1-.3-3-.8v.1c0 3.2 2.3 5.8 5.3 6.4-.6.1-1.1.2-1.7.2-.4 0-.8 0-1.2-.1.8 2.6 3.3 4.5 6.1 4.6-2.2 1.8-5.1 2.8-8.2 2.8-.5 0-1.1 0-1.6-.1 3 1.8 6.5 2.9 10.2 2.9 12.1 0 18.7-10 18.7-18.7v-.8c1.2-1 2.3-2.1 3.2-3.4z"/></symbol>

	<symbol id="social-vimeo" xmlns="http://www.w3.org/2000/svg" viewBox="0 0 32 32"><path d="M32 8.6c-.1 3.1-2.3 7.4-6.5 12.8-4.4 5.7-8 8.5-11 8.5-1.9 0-3.4-1.7-4.7-5.2-.9-3.2-1.7-6.3-2.6-9.5-1-3.4-2-5.2-3.1-5.2-.2 0-1.1.5-2.5 1.5L0 9.6c1.6-1.4 3.1-2.8 4.7-4.2 2.1-1.8 3.7-2.8 4.7-2.9 2.5-.2 4 1.5 4.6 5.1.6 3.9 1.1 6.4 1.3 7.3.7 3.3 1.5 4.9 2.4 4.9.7 0 1.7-1.1 3-3.2s2.1-3.7 2.2-4.8c.2-1.8-.5-2.7-2.2-2.7-.8 0-1.6.2-2.4.5 1.6-5.2 4.6-7.7 9-7.5 3.3.2 4.9 2.3 4.7 6.5z"/></symbol>

	<symbol id="social-youtube" xmlns="http://www.w3.org/2000/svg" viewBox="0 0 32 32"><path d="M31.7 9.6s-.3-2.2-1.3-3.2c-1.2-1.3-2.6-1.3-3.2-1.4-4.5-.3-11.2-.3-11.2-.3s-6.7 0-11.2.3c-.6.1-2 .1-3.2 1.4C.6 7.4.3 9.6.3 9.6S0 12.2 0 14.8v2.4c0 2.6.3 5.2.3 5.2s.3 2.2 1.3 3.2c1.2 1.3 2.8 1.2 3.5 1.4 2.6.2 10.9.3 10.9.3s6.7 0 11.2-.3c.6-.1 2-.1 3.2-1.4 1-1 1.3-3.2 1.3-3.2s.3-2.6.3-5.2v-2.4c0-2.6-.3-5.2-.3-5.2zm-19 10.6v-9l8.6 4.5-8.6 4.5z"/></symbol>
</svg>